<svg width="500" height="138" viewBox="0 0 500 138" fill="none" xmlns="http://www.w3.org/2000/svg">
<path d="M69.3278 19.3911L63.8427 31.5333L49.9828 0.815186L9.16748 91.2647H19.359L49.9828 23.3948L58.7435 42.8038L32.1809 101.548H14.7157L14.7227 101.54H4.53113L0 111.584H37.7992L74.4271 30.6616L69.3278 19.3911Z" fill="white"/>
<path d="M84.8065 53.6193L79.7282 42.4028L68.9264 65.9081L85.2414 101.548H64.8372L59.3592 87.3537L53.9863 99.1257L58.798 111.584H99.957L79.2513 65.6921L84.8065 53.6193Z" fill="#F59848"/>
<path d="M500 67.7864H401.753V104.267H500V67.7864Z" fill="#F59848"/>
<path d="M419.071 76.3257H426.78C432.503 76.3257 436.403 80.2059 436.403 86.0225C436.403 91.839 432.496 95.7193 426.78 95.7193H419.071V76.3257ZM426.626 92.6799C430.553 92.6799 433.1 90.0493 433.1 86.0302C433.1 82.0111 430.553 79.3805 426.626 79.3805H422.34V92.6799H426.626Z" fill="#1F1F1F"/>
<path d="M453.951 91.2373H445.134L443.394 95.727H440.021L447.954 76.3257H451.18L459.141 95.727H455.711L453.951 91.2373ZM452.87 88.4139L449.546 79.9359L446.249 88.4139H452.87Z" fill="#1F1F1F"/>
<path d="M463.674 86.0297C463.674 80.298 467.707 76.0552 473.171 76.0552C478.642 76.0552 482.668 80.2671 482.668 86.0297C482.668 91.7922 478.635 96.0042 473.171 96.0042C467.7 96.0042 463.674 91.7614 463.674 86.0297ZM479.371 86.0297C479.371 82.0646 476.727 79.2103 473.171 79.2103C469.622 79.2103 466.97 82.0646 466.97 86.0297C466.97 89.9948 469.615 92.8491 473.171 92.8491C476.72 92.8414 479.371 89.9948 479.371 86.0297Z" fill="#1F1F1F"/>
<path d="M127.64 96C127.288 96 126.98 95.868 126.716 95.604C126.452 95.34 126.32 95.032 126.32 94.68C126.32 94.46 126.342 94.218 126.386 93.954L142.754 51.252C142.93 50.812 143.172 50.46 143.48 50.196C143.788 49.932 144.25 49.8 144.866 49.8H149.354C149.926 49.8 150.366 49.932 150.674 50.196C151.026 50.46 151.29 50.812 151.466 51.252L167.768 93.954C167.856 94.218 167.9 94.46 167.9 94.68C167.9 95.032 167.768 95.34 167.504 95.604C167.24 95.868 166.932 96 166.58 96H163.214C162.686 96 162.29 95.868 162.026 95.604C161.806 95.34 161.652 95.098 161.564 94.878L157.934 85.506H136.286L132.656 94.878C132.612 95.098 132.458 95.34 132.194 95.604C131.93 95.868 131.534 96 131.006 96H127.64ZM138.2 79.83H156.02L147.11 56.4L138.2 79.83ZM176.475 96C175.991 96 175.617 95.868 175.353 95.604C175.089 95.296 174.957 94.922 174.957 94.482V51.384C174.957 50.9 175.089 50.526 175.353 50.262C175.617 49.954 175.991 49.8 176.475 49.8H191.457C195.989 49.8 199.641 50.482 202.413 51.846C205.185 53.21 207.209 55.234 208.485 57.918C209.761 60.558 210.421 63.814 210.465 67.686C210.509 69.666 210.531 71.404 210.531 72.9C210.531 74.396 210.509 76.112 210.465 78.048C210.377 82.096 209.695 85.462 208.419 88.146C207.187 90.786 205.207 92.766 202.479 94.086C199.795 95.362 196.231 96 191.787 96H176.475ZM181.425 90.39H191.457C194.493 90.39 196.913 89.972 198.717 89.136C200.521 88.3 201.819 86.958 202.611 85.11C203.447 83.262 203.887 80.82 203.931 77.784C204.019 76.464 204.063 75.32 204.063 74.352C204.063 73.34 204.063 72.35 204.063 71.382C204.063 70.37 204.019 69.226 203.931 67.95C203.843 63.682 202.831 60.536 200.895 58.512C198.959 56.444 195.703 55.41 191.127 55.41H181.425V90.39ZM221.979 96C221.495 96 221.121 95.868 220.857 95.604C220.593 95.296 220.461 94.922 220.461 94.482V51.318C220.461 50.878 220.593 50.526 220.857 50.262C221.121 49.954 221.495 49.8 221.979 49.8H225.477C225.917 49.8 226.269 49.954 226.533 50.262C226.841 50.526 226.995 50.878 226.995 51.318V94.482C226.995 94.922 226.841 95.296 226.533 95.604C226.269 95.868 225.917 96 225.477 96H221.979ZM240.026 96C239.542 96 239.168 95.868 238.904 95.604C238.64 95.296 238.508 94.922 238.508 94.482V51.384C238.508 50.9 238.64 50.526 238.904 50.262C239.168 49.954 239.542 49.8 240.026 49.8H256.13C261.102 49.8 265.04 50.966 267.944 53.298C270.848 55.63 272.3 59.084 272.3 63.66C272.3 67.048 271.442 69.82 269.726 71.976C268.054 74.088 265.766 75.562 262.862 76.398L273.026 93.954C273.158 94.218 273.224 94.46 273.224 94.68C273.224 95.032 273.07 95.34 272.762 95.604C272.498 95.868 272.19 96 271.838 96H268.67C267.922 96 267.372 95.802 267.02 95.406C266.668 95.01 266.36 94.614 266.096 94.218L256.526 77.454H244.976V94.482C244.976 94.922 244.822 95.296 244.514 95.604C244.25 95.868 243.876 96 243.392 96H240.026ZM244.976 71.844H255.866C259.166 71.844 261.63 71.162 263.258 69.798C264.886 68.39 265.7 66.322 265.7 63.594C265.7 60.91 264.886 58.864 263.258 57.456C261.674 56.048 259.21 55.344 255.866 55.344H244.976V71.844ZM283.274 96C282.79 96 282.416 95.868 282.152 95.604C281.888 95.296 281.756 94.922 281.756 94.482V51.318C281.756 50.878 281.888 50.526 282.152 50.262C282.416 49.954 282.79 49.8 283.274 49.8H286.772C287.212 49.8 287.564 49.954 287.828 50.262C288.136 50.526 288.29 50.878 288.29 51.318V94.482C288.29 94.922 288.136 95.296 287.828 95.604C287.564 95.868 287.212 96 286.772 96H283.274ZM298.285 96C297.801 96 297.427 95.846 297.163 95.538C296.899 95.23 296.767 94.856 296.767 94.416V91.578C296.767 90.918 296.899 90.39 297.163 89.994C297.427 89.598 297.625 89.312 297.757 89.136L322.309 55.542H298.879C298.439 55.542 298.065 55.41 297.757 55.146C297.493 54.838 297.361 54.464 297.361 54.024V51.384C297.361 50.9 297.493 50.526 297.757 50.262C298.065 49.954 298.439 49.8 298.879 49.8H328.777C329.261 49.8 329.635 49.954 329.899 50.262C330.163 50.526 330.295 50.9 330.295 51.384V54.222C330.295 54.75 330.207 55.19 330.031 55.542C329.899 55.894 329.701 56.224 329.437 56.532L305.149 90.258H329.437C329.921 90.258 330.295 90.412 330.559 90.72C330.867 90.984 331.021 91.358 331.021 91.842V94.482C331.021 94.922 330.867 95.296 330.559 95.604C330.295 95.868 329.921 96 329.437 96H298.285ZM340.895 96C340.411 96 340.037 95.868 339.773 95.604C339.509 95.296 339.377 94.922 339.377 94.482V51.384C339.377 50.9 339.509 50.526 339.773 50.262C340.037 49.954 340.411 49.8 340.895 49.8H368.153C368.637 49.8 369.011 49.954 369.275 50.262C369.539 50.526 369.671 50.9 369.671 51.384V53.892C369.671 54.376 369.539 54.75 369.275 55.014C369.011 55.278 368.637 55.41 368.153 55.41H345.713V69.864H366.701C367.185 69.864 367.559 70.018 367.823 70.326C368.087 70.59 368.219 70.964 368.219 71.448V73.89C368.219 74.33 368.087 74.704 367.823 75.012C367.559 75.276 367.185 75.408 366.701 75.408H345.713V90.39H368.681C369.165 90.39 369.539 90.522 369.803 90.786C370.067 91.05 370.199 91.424 370.199 91.908V94.482C370.199 94.922 370.067 95.296 369.803 95.604C369.539 95.868 369.165 96 368.681 96H340.895Z" fill="white"/>
</svg>
